<?xml version="1.0" encoding="utf-8"?>
<!-- Generator: Adobe Illustrator 23.1.0, SVG Export Plug-In . SVG Version: 6.00 Build 0)  -->
<svg version="1.1" id="Layer_1" xmlns="http://www.w3.org/2000/svg" xmlns:xlink="http://www.w3.org/1999/xlink" x="0px" y="0px"
	 viewBox="0 0 5000 5000" style="enable-background:new 0 0 5000 5000;" xml:space="preserve">
<style type="text/css">
	.st0{fill:#FAB19D;}
	.st1{fill:#ED9884;}
	.st2{fill:#FDBBA4;}
	.st3{fill:#F7AFA0;}
	.st4{fill:#13C0B4;}
	.st5{fill:#0EB09F;}
	.st6{fill:#381C10;}
	.st7{fill:#D9806E;}
</style>
<g>
	<g>
		<path class="st0" d="M4455.31,5000c-19.89-446.02-63.5-1018.33-158.39-1188.35c-162.22-290.67-1098.12-318.36-1247.86-553.67
			c-149.74-235.31-124.78-664.4-124.78-664.4l-424.27,13.84l-424.28-13.84c0,0,24.95,429.09-124.79,664.4
			c-149.73,235.31-1085.63,262.99-1247.86,553.67C608.21,3981.67,564.58,4553.98,544.7,5000H4455.31z"/>
		<path class="st1" d="M3119.17,3324.59c-30.46-20.37-54.66-42.34-70.11-66.61c-149.74-235.32-124.79-664.4-124.79-664.4
			L2500,2607.42l-424.27-13.84c0,0,16.87,295.71-63.06,530.82C2224.65,3247.94,2669.12,3452.41,3119.17,3324.59z"/>
	</g>
	<g>
		<g>
			<g>
				<path class="st0" d="M1418.13,1555.09c0,0-188.29-150.07-337.3,20.78c-124.21,142.42,44.53,431.61,213.09,523.77
					c168.57,92.16,230.67-8.38,230.67-8.38L1418.13,1555.09z"/>
				<path class="st1" d="M1427,1812.17c0,0-110.21-197.73-247.97-202.94c-137.76-5.2,115.71,41.63,104.69,130.09
					c-11.02,88.46-121.23,166.51-60.61,161.31c60.61-5.2,115.72-114.48,143.27-57.24c27.55,57.24,66.12,98.87,66.12,67.64
					C1432.51,1879.82,1427,1812.17,1427,1812.17z"/>
			</g>
			<g>
				<path class="st0" d="M3581.87,1555.09c0,0,188.3-150.07,337.3,20.78c124.2,142.42-44.53,431.61-213.09,523.77
					c-168.56,92.16-230.67-8.38-230.67-8.38L3581.87,1555.09z"/>
				<path class="st1" d="M3573,1812.17c0,0,110.21-197.73,247.97-202.94c137.76-5.2-115.72,41.63-104.7,130.09
					c11.02,88.46,121.23,166.51,60.61,161.31c-60.61-5.2-115.72-114.48-143.27-57.24c-27.55,57.24-66.12,98.87-66.12,67.64
					C3567.49,1879.82,3573,1812.17,3573,1812.17z"/>
			</g>
		</g>
		<path class="st2" d="M2500,225.26c-717.41,25.09-1177.97,460-1169.12,802.91c9.3,359.62,53.15,1354.9,407.42,1714.53
			c98.71,100.2,201.54,177.03,298.55,235.73c282.62,171.03,643.68,171.03,926.3,0c97-58.7,199.83-135.53,298.55-235.73
			c354.28-359.63,398.13-1354.91,407.42-1714.53C3677.98,685.26,3217.42,250.35,2500,225.26z"/>
		<path class="st3" d="M2500,225.26c-324.82,11.36-596.23,107.12-796.01,239.93c-13.27,101.32-20.68,165.51-20.68,165.51
			s332.91,647.23,881.24,628.74s744.16,240.4,646.24,887.63c-83.34,550.89-465.51,899.41-1084.33,877.36
			c266.62,122.06,583.03,107.52,836.69-45.99c97-58.7,199.83-135.53,298.55-235.73c354.28-359.63,398.13-1354.91,407.42-1714.54
			C3677.98,685.26,3217.41,250.35,2500,225.26z"/>
	</g>
	<g>
		<path class="st4" d="M5000,5000c-56.17-444.11-182.67-1013.16-467.68-1231.18c-390.46-298.69-1089.03-456.02-1367.36-509.26
			c-42.25,298.51-468.52,670.75-664.96,670.75c-196.21,0-622.69-372.24-664.94-670.75c-278.35,53.25-976.92,210.56-1367.38,509.26
			C182.67,3986.84,56.17,4555.89,0,5000H5000z"/>
		<g>
			<path class="st5" d="M1108.24,5000c-54.64-341.91-156.09-787.52-236.26-547.81c-50.09,149.77-191.84,354.64-267.17,547.81
				H1108.24z"/>
			<path class="st5" d="M4532.31,3768.82c-390.46-298.69-1089.02-456.02-1367.36-509.26c-8.02,56.73-30.05,116.11-61.6,175.11
				c249.66,66.19,664.42,226.87,745.15,575.38c106.88,461.36-370.26,607.57-403.41,989.95H5000
				C4943.83,4555.89,4817.32,3986.84,4532.31,3768.82z"/>
		</g>
	</g>
	<path class="st6" d="M1402.45,1902.79c11.32,44.72,25.04,88.74,44.53,128.29c-8.93-44.68,1.1-90.57,11.1-135.05
		c22.06-98.16,30.87-198.01,45.78-297.43c12.05-80.36-7.02-160.7-7.02-242.6c0-296.78,281.78-491.22,281.78-542.39
		c0-51.17,216.76,266.08,661.11,276.31c180.23,4.15,352.23-50.45,514.67-119.22c143.14-60.59,293.93-142.97,453.24-152.06
		c-36.2,227.23-23.6,461.28,36.81,683.86c29.95,110.41,79.93,231.76,86.59,345.73c0.95,16.24,0.57,32.52,1.13,48.78
		c1.47,43.41,9.63,86.61,24.15,127.83c-8.13-23.11,10.89-66.37,15.94-89.46c6.9-31.53,9.32-61.63,11.31-93.56
		c4.54-73.04,13.63-147.64,31.88-218.81c37.67-146.86,103.1-287.38,103.1-440.98c0-184.2-54.18-327.48-43.35-470.75
		c10.83-143.28,151.72-255.85,54.19-440.05c-97.53-184.21-151.73,20.46-520.21-30.71C2840.69,189.34,2797.33,56.3,2287.97,5.12
		c-509.37-51.17-617.74,296.79-650.25,337.72c-32.51,40.94-249.27-40.93-390.16,266.08c-65.53,142.82-44.9,320.35-25.23,470.1
		c23.35,177.81,64.65,353.14,108.6,527.28c14.15,56.05,29.36,111.93,42.37,168.23C1382.8,1815.67,1391.5,1859.56,1402.45,1902.79z"
		/>
	<g>
		<path class="st6" d="M2095.61,1770.47c0,55.36-38.47,100.24-85.93,100.24c-47.46,0-85.93-44.88-85.93-100.24
			s38.47-100.24,85.93-100.24C2057.14,1670.23,2095.61,1715.11,2095.61,1770.47z"/>
		<path class="st6" d="M3062.59,1770.47c0,55.36-38.47,100.24-85.93,100.24c-47.46,0-85.93-44.88-85.93-100.24
			s38.47-100.24,85.93-100.24C3024.12,1670.23,3062.59,1715.11,3062.59,1770.47z"/>
	</g>
	<path class="st1" d="M2548.17,1730.15c0,0-50.86,66.04,25.44,204.14c76.3,138.09,146.24,228.15,101.73,276.18
		c-44.51,48.03-165.31,90.06-158.95,72.05c6.36-18.01,104.48-70.79,53.62-196.88C2519.13,1959.56,2433.69,1849.97,2548.17,1730.15z"
		/>
	<path class="st6" d="M1784.28,1620.86c0,0,79.76-242.98,288.26-206.98c73.81,12.75,82.68,88.35-73.52,92.92
		C1901.82,1509.65,1784.28,1620.86,1784.28,1620.86z"/>
	<path class="st6" d="M3191.02,1632.4c0,0-58.59-248.29-269.5-228.41c-74.66,7.04-90.01,81.72,65.28,98.25
		C3083.44,1512.53,3191.02,1632.4,3191.02,1632.4z"/>
	<g>
		<g>
			<path class="st7" d="M2503.47,2534.31c-182.42,0-299.93-42.27-307.22-44.96c-9.62-3.54-14.35-13.76-10.56-22.8
				c3.71-9.08,14.72-13.52,24.11-10.01c2.62,0.93,263.43,94.22,609.12-0.52c9.69-2.85,20.18,2.68,23.1,12.01
				c2.84,9.35-2.84,19.12-12.75,21.84C2707.75,2523.17,2597.09,2534.31,2503.47,2534.31z"/>
		</g>
		<path class="st7" d="M2382.45,2617.6c0,0,115.32,50.27,262.22,0C2644.68,2617.6,2518.67,2756.64,2382.45,2617.6z"/>
	</g>
</g>
</svg>
